# File created by Blade
# Date/Time:  Wed Jan 21 16:14:22 2015
#---------------------------------------------------------
:version 1.10
:name HOM
:units
  mass 1.0
  length 1.000000
  angle deg
:documentation
     Acclaim Skeleton File
:root
   axis xyz
   order TX TY TZ RX RY RZ
   position 0.000000 0.000000 0.000000
   orientation 0 0 0
:bonedata
   begin
      id 1
      name Spine_dum
      direction 0.000000 1.000000 0.000000
      length 7.067664
      axis 0.0 0.0 0.0 xyz
   end
   begin
      id 2
      name LeftUpLeg_dum
      direction 1.000000 0.000000 0.000000
      length 4.013002
      axis 0.0 0.0 0.0 xyz
   end
   begin
      id 3
      name RightUpLeg_dum
      direction -1.000000 0.000000 0.000000
      length 4.013002
      axis 0.0 0.0 0.0 xyz
   end
   begin
      id 4
      name Spine
      direction 0.000000 1.000000 0.000000
      length 0.000000
      axis 0.0 0.0 0.0 xyz
      dof rx ry rz
   end
   begin
      id 5
      name Spine_dum1
      direction 0.000000 1.000000 0.000000
      length 15.039886
      axis 0.0 0.0 0.0 xyz
   end
   begin
      id 6
      name Spine_dum2
      direction 0.000000 1.000000 0.000000
      length 10.530368
      axis 0.0 0.0 0.0 xyz
   end
   begin
      id 7
      name Spine_dum3
      direction 0.000000 1.000000 0.000000
      length 10.530368
      axis 0.0 0.0 0.0 xyz
   end
   begin
      id 8
      name Head
      direction 0.000000 1.000000 0.000000
      length 4.527550
      axis 0.0 0.0 0.0 xyz
      dof rx ry rz
   end
   begin
      id 9
      name LeftShoulder
      direction 1.000000 0.000000 0.000000
      length 7.028855
      axis 0.0 0.0 -90.0 xyz
      dof rx ry rz
   end
   begin
      id 10
      name LeftArm
      direction 1.000000 0.000000 0.000000
      length 10.797705
      axis 0.0 0.0 -90.0 xyz
      dof rx ry rz
   end
   begin
      id 11
      name LeftForeArm
      direction 1.000000 0.000000 0.000000
      length 7.907442
      axis 0.0 0.0 -90.0 xyz
      dof ry rz rx
   end
   begin
      id 12
      name LeftHand
      direction 0.000000 0.000000 0.000000
      length 0.000000
      axis 0.0 0.0 -90.0 xyz
      dof rx ry rz
   end
   begin
      id 13
      name LeftHand_dum1
      direction 0.000000 0.000000 0.000000
      length 0.000000
      axis 0.0 0.0 -90.0 xyz
   end
   begin
      id 14
      name LeftHand_dum2
      direction 1.000000 0.000000 0.000000
      length 3.937000
      axis 0.0 0.0 -90.0 xyz
   end
   begin
      id 15
      name LeftHandThumb1
      direction 0.000000 0.000000 1.000000
      length 3.937000
      axis 0.0 0.0 -90.0 xyz
      dof rx rz ry
   end
   begin
      id 16
      name RightShoulder
      direction -1.000000 0.000000 0.000000
      length 7.028855
      axis 0.0 0.0 90.0 xyz
      dof rx ry rz
   end
   begin
      id 17
      name RightArm
      direction -1.000000 0.000000 0.000000
      length 10.797705
      axis 0.0 0.0 90.0 xyz
      dof rx ry rz
   end
   begin
      id 18
      name RightForeArm
      direction -1.000000 0.000000 0.000000
      length 7.907442
      axis 0.0 0.0 90.0 xyz
      dof ry rz rx
   end
   begin
      id 19
      name RightHand
      direction 0.000000 0.000000 0.000000
      length 0.000000
      axis 0.0 0.0 90.0 xyz
      dof rx ry rz
   end
   begin
      id 20
      name RightHand_dum1
      direction 0.000000 0.000000 0.000000
      length 0.000000
      axis 0.0 0.0 90.0 xyz
   end
   begin
      id 21
      name RightHand_dum2
      direction -1.000000 0.000000 0.000000
      length 3.937000
      axis 0.0 0.0 90.0 xyz
   end
   begin
      id 22
      name RightHandThumb1
      direction 0.000000 0.000000 1.000000
      length 3.937000
      axis 0.0 0.0 90.0 xyz
      dof rx rz ry
   end
   begin
      id 23
      name LeftUpLeg
      direction 0.000000 -1.000000 0.000000
      length 16.899758
      axis 0.0 0.0 0.0 xyz
      dof rx ry rz
   end
   begin
      id 24
      name LeftLeg
      direction 0.000000 -1.000000 0.000000
      length 17.389183
      axis 0.0 0.0 0.0 xyz
      dof rx ry rz
   end
   begin
      id 25
      name LeftFoot
      direction 0.000000 -0.258819 0.965926
      length 4.924528
      axis 15.0 0.0 0.0 xyz
      dof rx ry rz
   end
   begin
      id 26
      name LeftToeBase
      direction 0.000000 0.000000 1.000000
      length 2.952750
      axis 0.0 0.0 0.0 xyz
      dof rx ry rz
   end
   begin
      id 27
      name RightUpLeg
      direction 0.000000 -1.000000 0.000000
      length 16.899758
      axis 0.0 0.0 0.0 xyz
      dof rx ry rz
   end
   begin
      id 28
      name RightLeg
      direction 0.000000 -1.000000 0.000000
      length 17.389183
      axis 0.0 0.0 0.0 xyz
      dof rx ry rz
   end
   begin
      id 29
      name RightFoot
      direction 0.000000 -0.258819 0.965926
      length 4.924528
      axis 15.0 0.0 0.0 xyz
      dof rx ry rz
   end
   begin
      id 30
      name RightToeBase
      direction 0.000000 0.000000 1.000000
      length 2.952750
      axis 0.0 0.0 0.0 xyz
      dof rx ry rz
   end
:hierarchy
   begin
      root Spine_dum LeftUpLeg_dum RightUpLeg_dum
      Spine_dum Spine
      LeftUpLeg_dum LeftUpLeg
      RightUpLeg_dum RightUpLeg
      Spine Spine_dum1 Spine_dum2 Spine_dum3
      Spine_dum1 Head
      Spine_dum2 LeftShoulder
      Spine_dum3 RightShoulder
      LeftShoulder LeftArm
      LeftArm LeftForeArm
      LeftForeArm LeftHand
      LeftHand LeftHand_dum1 LeftHand_dum2
      LeftHand_dum1 LeftHandThumb1
      RightShoulder RightArm
      RightArm RightForeArm
      RightForeArm RightHand
      RightHand RightHand_dum1 RightHand_dum2
      RightHand_dum1 RightHandThumb1
      LeftUpLeg LeftLeg
      LeftLeg LeftFoot
      LeftFoot LeftToeBase
      RightUpLeg RightLeg
      RightLeg RightFoot
      RightFoot RightToeBase
   end

# File created by Blade
# Date/Time:  Wed Jan 21 16:14:13 2015
# Frame Rate: 120.000 fps
#------------------------------------------------------
:FULLY-SPECIFIED
:DEGREES
67
root 18.438276 35.580291 -20.243202 -171.341642 -1.294585 -179.182106
Spine -19.725911 0.899170 0.240699
Head 11.973309 -1.334999 -1.074961
LeftShoulder -8.260713 -41.774782 23.516431
LeftArm 8.377977 -1.350659 -3.148092
LeftForeArm -6.315901 -0.000000 -3.731122
LeftHand -9.851818 -0.000000 -6.344902
LeftHandThumb1 -26.253704 0.000000 33.147579
RightShoulder -8.895807 1.361347 -16.853834
RightArm 7.487208 42.740496 5.052908
RightForeArm -36.286550 0.000000 1.778510
RightHand -3.618670 -0.000000 15.593810
RightHandThumb1 -24.326973 -0.000000 -32.862282
LeftUpLeg -0.548048 8.696785 -0.465643
LeftLeg -5.630014 -0.000000 0.000000
LeftFoot -20.666343 26.008408 -12.445039
LeftToeBase 25.729009 -0.000000 -0.000000
RightUpLeg -1.874621 -5.645140 1.316428
RightLeg -2.771794 -0.000000 0.000000
RightFoot -21.478851 -27.795643 14.223422
RightToeBase 23.768732 -0.000000 -0.000000
68
root 18.440313 35.583417 -20.254147 -171.406844 -1.308888 -179.165537
Spine -19.785873 0.910536 0.241462
Head 12.082480 -1.305542 -1.079771
LeftShoulder -8.057541 -42.299984 23.981901
LeftArm 8.982376 -1.598816 -2.827444
LeftForeArm -6.847766 -0.000000 -3.587081
LeftHand -9.870982 -0.000000 -6.123896
LeftHandThumb1 -26.253704 0.000000 33.147579
RightShoulder -8.801010 1.763605 -17.299368
RightArm 7.761985 43.017069 4.508572
RightForeArm -36.593546 -0.000000 1.884235
RightHand -3.505366 -0.000000 15.247580
RightHandThumb1 -24.326973 -0.000000 -32.862282
LeftUpLeg -0.477975 8.667397 -0.429874
LeftLeg -5.606039 -0.000000 0.000000
LeftFoot -20.692162 26.039656 -12.509259
LeftToeBase 25.972386 -0.000000 -0.000000
RightUpLeg -1.809832 -5.614255 1.326704
RightLeg -2.729446 -0.000000 0.000000
RightFoot -21.512586 -27.802726 14.325986
RightToeBase 23.683746 -0.000000 -0.000000
69
root 18.441380 35.586337 -20.266626 -171.523094 -1.315715 -179.162910
Spine -19.775854 0.941747 0.236726
Head 12.169039 -1.244419 -1.120568
LeftShoulder -7.794980 -42.879280 24.370403
LeftArm 9.621339 -1.635389 -2.440994
LeftForeArm -7.413884 -0.000000 -3.467082
LeftHand -9.871954 -0.000000 -5.699064
LeftHandThumb1 -26.253704 0.000000 33.147579
RightShoulder -8.670961 2.290920 -17.808009
RightArm 7.847633 42.687071 3.824123
RightForeArm -36.337511 -0.000000 2.094250
RightHand -3.599933 -0.000000 14.929228
RightHandThumb1 -24.326973 -0.000000 -32.862282
LeftUpLeg -0.341831 8.605449 -0.400361
LeftLeg -5.599911 -0.000000 0.000000
LeftFoot -20.681801 26.084127 -12.535577
LeftToeBase 25.943355 -0.000000 -0.000000
RightUpLeg -1.696804 -5.621302 1.320550
RightLeg -2.682473 -0.000000 0.000000
RightFoot -21.552112 -27.781477 14.410469
RightToeBase 23.714911 -0.000000 -0.000000
70
root 18.442152 35.589054 -20.279382 -171.654089 -1.321631 -179.156533
Spine -19.746916 0.960763 0.228703
Head 12.250194 -1.197637 -1.138521
LeftShoulder -7.562060 -43.511086 24.839853
LeftArm 10.243717 -1.637627 -2.084576
LeftForeArm -7.675358 0.000000 -3.335232
LeftHand -9.726222 -0.000000 -5.537911
LeftHandThumb1 -26.253704 0.000000 33.147579
RightShoulder -8.537628 2.703615 -18.272612
RightArm 8.060734 42.634657 3.201792
RightForeArm -36.357473 -0.000000 2.250081
RightHand -3.511917 -0.000000 14.393304
RightHandThumb1 -24.326973 -0.000000 -32.862282
LeftUpLeg -0.197885 8.580952 -0.368232
LeftLeg -5.575703 -0.000000 0.000000
LeftFoot -20.660053 26.063573 -12.521239
LeftToeBase 25.813168 -0.000000 -0.000000
RightUpLeg -1.572327 -5.642871 1.316888
RightLeg -2.627385 -0.000000 0.000000
RightFoot -21.587914 -27.741054 14.480533
RightToeBase 23.692393 -0.000000 -0.000000
